<?xml version="1.0" encoding="utf-8"?>
<!-- Generator: Adobe Illustrator 26.0.3, SVG Export Plug-In . SVG Version: 6.00 Build 0)  -->
<svg version="1.1" id="Layer_1" xmlns="http://www.w3.org/2000/svg" xmlns:xlink="http://www.w3.org/1999/xlink" x="0px" y="0px"
	 viewBox="0 0 634 219" style="enable-background:new 0 0 634 219;" xml:space="preserve">
<style type="text/css">
	.st0{fill:#FFC107;}
	.st1{fill:#FFFFFF;}
	.st2{fill:none;stroke:#FFFFFF;stroke-miterlimit:10;}
	.st3{fill:none;stroke:#000000;stroke-width:2.5618;stroke-linecap:round;stroke-linejoin:round;stroke-miterlimit:10;}
</style>
<g>
	<polygon class="st0" points="37.5,194.9 13.3,219 61,219 	"/>
	<polygon class="st0" points="112.5,194.9 136.7,219 89,219 	"/>
	<polygon class="st0" points="58.6,55.6 75,72 91.4,55.6 	"/>
	<polygon points="75,0 42.5,32.5 42.5,64.3 75,31.9 107.5,64.3 107.5,32.5 	"/>
	<polygon points="112.8,72 150,110.1 136.9,162 112.8,188.6 	"/>
	<polygon points="37.2,72 0,110.1 13.1,162 37.2,188.6 	"/>
	<polyline class="st3" points="106.2,194 90,210.2 60,210.2 43.8,194 	"/>
</g>
<g>
	<path d="M189.2,39.2h41.2v9.5h-15.9v52.1h-9.8V48.7h-15.5V39.2z"/>
	<path d="M256.9,39.2c3.4,0,6.5,0.5,9.3,1.4c2.8,0.9,5.2,2.2,7.2,3.8c2,1.7,3.5,3.7,4.6,6.1c1.1,2.4,1.6,5.2,1.6,8.5
		c0,2.4-0.4,4.9-1.1,7.3c-0.7,2.4-1.9,4.6-3.6,6.6c-1.7,2-3.8,3.6-6.6,4.7s-6,1.8-10,1.8h-9v21.4h-9.9V39.2H256.9z M258.2,69.8
		c2.1,0,3.9-0.3,5.4-1c1.5-0.7,2.6-1.6,3.5-2.6c0.8-1.1,1.5-2.2,1.8-3.4c0.4-1.2,0.5-2.4,0.5-3.4c0-1-0.2-2.1-0.5-3.3
		c-0.3-1.2-0.9-2.4-1.7-3.5c-0.8-1.1-1.9-2-3.3-2.7c-1.4-0.7-3.2-1.1-5.3-1.1h-9.1v21.2H258.2z M268.9,75.8l15.7,25h-11.5l-16-24.7
		L268.9,75.8z"/>
	<path d="M301.7,78.6c0,2.4,0.6,4.6,1.9,6.6c1.3,2,2.9,3.6,5,4.9c2.1,1.2,4.4,1.9,7,1.9c2.7,0,5.1-0.6,7.3-1.9
		c2.1-1.2,3.8-2.9,5.1-4.9c1.3-2,1.9-4.2,1.9-6.6V39.2h9.6v39.6c0,4.5-1.1,8.5-3.2,11.9c-2.1,3.4-5,6.1-8.7,8
		c-3.6,1.9-7.7,2.8-12.1,2.8c-4.4,0-8.4-0.9-12-2.8c-3.6-1.9-6.5-4.5-8.6-8c-2.1-3.4-3.2-7.4-3.2-11.9V39.2h9.9V78.6z"/>
	<path d="M384.4,51.8c-2.2-1.2-4.5-2.2-7-3c-2.5-0.8-4.9-1.2-7.1-1.2c-3,0-5.4,0.7-7.2,2c-1.7,1.4-2.6,3.2-2.6,5.6
		c0,1.7,0.6,3.2,1.8,4.4s2.8,2.4,4.7,3.3c1.9,0.9,3.9,1.8,6.1,2.7c1.9,0.7,3.7,1.5,5.5,2.4c1.8,0.9,3.5,2.1,4.9,3.4
		c1.5,1.3,2.7,3,3.6,5.1c0.9,2.1,1.3,4.5,1.3,7.4c0,3.3-0.8,6.2-2.4,8.8c-1.6,2.6-4,4.7-7.1,6.3c-3.1,1.6-6.8,2.4-11.1,2.4
		c-2.6,0-5.1-0.3-7.6-0.8c-2.5-0.6-4.8-1.3-7-2.3c-2.2-1-4.2-2.1-6.1-3.5l4.4-7.6c1.4,1,2.9,1.9,4.7,2.8c1.7,0.8,3.5,1.5,5.4,2
		c1.8,0.5,3.6,0.8,5.3,0.8c1.7,0,3.4-0.3,5.2-0.9c1.8-0.6,3.2-1.5,4.4-2.8c1.1-1.3,1.7-3,1.7-5.2c0-1.7-0.5-3.2-1.5-4.4
		c-1-1.2-2.3-2.3-3.9-3.2s-3.4-1.8-5.3-2.5c-1.9-0.7-3.8-1.6-5.8-2.5c-2-0.9-3.9-2-5.6-3.3c-1.7-1.3-3.1-2.9-4.1-4.9
		c-1-1.9-1.5-4.3-1.5-7c0-3.4,0.8-6.3,2.3-8.8c1.5-2.5,3.7-4.5,6.6-6c2.8-1.5,6.1-2.3,9.7-2.4c4.3,0,8.1,0.5,11.1,1.6
		c3.1,1,5.8,2.3,8.2,3.8L384.4,51.8z"/>
	<path d="M393.3,39.2h41.2v9.5h-15.9v52.1h-9.8V48.7h-15.5V39.2z"/>
	<path d="M443.6,39.2h9.9v52.1h30.4v9.5h-40.3V39.2z"/>
	<path d="M493.6,39.2h40.9v9.5h-31v16.4H531v9.5h-27.6v16.8h32.1v9.5h-42V39.2z"/>
	<path d="M578.2,51.8c-2.2-1.2-4.5-2.2-7-3c-2.5-0.8-4.9-1.2-7.1-1.2c-3,0-5.4,0.7-7.2,2c-1.7,1.4-2.6,3.2-2.6,5.6
		c0,1.7,0.6,3.2,1.8,4.4s2.8,2.4,4.7,3.3c1.9,0.9,3.9,1.8,6.1,2.7c1.9,0.7,3.7,1.5,5.5,2.4c1.8,0.9,3.5,2.1,4.9,3.4
		c1.5,1.3,2.7,3,3.6,5.1c0.9,2.1,1.3,4.5,1.3,7.4c0,3.3-0.8,6.2-2.4,8.8c-1.6,2.6-4,4.7-7.1,6.3c-3.1,1.6-6.8,2.4-11.1,2.4
		c-2.6,0-5.1-0.3-7.6-0.8c-2.5-0.6-4.8-1.3-7-2.3c-2.2-1-4.2-2.1-6.1-3.5l4.4-7.6c1.4,1,2.9,1.9,4.7,2.8c1.7,0.8,3.5,1.5,5.4,2
		c1.8,0.5,3.6,0.8,5.3,0.8c1.7,0,3.4-0.3,5.2-0.9c1.8-0.6,3.2-1.5,4.4-2.8c1.1-1.3,1.7-3,1.7-5.2c0-1.7-0.5-3.2-1.5-4.4
		c-1-1.2-2.3-2.3-3.9-3.2s-3.4-1.8-5.3-2.5c-1.9-0.7-3.8-1.6-5.8-2.5c-2-0.9-3.9-2-5.6-3.3c-1.7-1.3-3.1-2.9-4.1-4.9
		c-1-1.9-1.5-4.3-1.5-7c0-3.4,0.8-6.3,2.3-8.8c1.5-2.5,3.7-4.5,6.6-6c2.8-1.5,6.1-2.3,9.7-2.4c4.3,0,8.1,0.5,11.1,1.6
		c3.1,1,5.8,2.3,8.2,3.8L578.2,51.8z"/>
	<path d="M624,51.8c-2.2-1.2-4.5-2.2-7-3c-2.5-0.8-4.9-1.2-7.1-1.2c-3,0-5.4,0.7-7.2,2c-1.7,1.4-2.6,3.2-2.6,5.6
		c0,1.7,0.6,3.2,1.8,4.4s2.8,2.4,4.7,3.3c1.9,0.9,3.9,1.8,6.1,2.7c1.9,0.7,3.7,1.5,5.5,2.4c1.8,0.9,3.5,2.1,4.9,3.4
		c1.5,1.3,2.7,3,3.6,5.1c0.9,2.1,1.3,4.5,1.3,7.4c0,3.3-0.8,6.2-2.4,8.8c-1.6,2.6-4,4.7-7.1,6.3c-3.1,1.6-6.8,2.4-11.1,2.4
		c-2.6,0-5.1-0.3-7.6-0.8c-2.5-0.6-4.8-1.3-7-2.3c-2.2-1-4.2-2.1-6.1-3.5l4.4-7.6c1.4,1,2.9,1.9,4.7,2.8c1.7,0.8,3.5,1.5,5.4,2
		c1.8,0.5,3.6,0.8,5.3,0.8c1.7,0,3.4-0.3,5.2-0.9c1.8-0.6,3.2-1.5,4.4-2.8c1.1-1.3,1.7-3,1.7-5.2c0-1.7-0.5-3.2-1.5-4.4
		c-1-1.2-2.3-2.3-3.9-3.2s-3.4-1.8-5.3-2.5c-1.9-0.7-3.8-1.6-5.8-2.5c-2-0.9-3.9-2-5.6-3.3c-1.7-1.3-3.1-2.9-4.1-4.9
		c-1-1.9-1.5-4.3-1.5-7c0-3.4,0.8-6.3,2.3-8.8c1.5-2.5,3.7-4.5,6.6-6c2.8-1.5,6.1-2.3,9.7-2.4c4.3,0,8.1,0.5,11.1,1.6
		c3.1,1,5.8,2.3,8.2,3.8L624,51.8z"/>
</g>
<g>
	<path d="M239.3,180.5c-0.8,0.7-2.2,1.5-4,2.3c-1.8,0.9-3.9,1.6-6.4,2.3c-2.5,0.6-5.2,0.9-8.2,0.9c-4.8-0.1-9.1-0.9-12.9-2.6
		c-3.8-1.7-7.1-3.9-9.7-6.8c-2.7-2.8-4.7-6.1-6.2-9.8c-1.4-3.7-2.2-7.7-2.2-11.9c0-4.6,0.7-8.8,2.2-12.7c1.5-3.9,3.6-7.3,6.3-10.2
		c2.7-2.8,5.9-5.1,9.6-6.6c3.7-1.6,7.8-2.4,12.3-2.4c3.8,0,7.3,0.5,10.4,1.6c3.1,1,5.7,2.2,7.7,3.6l-3.9,9.2
		c-1.6-1.2-3.6-2.3-5.9-3.3c-2.4-1-5-1.6-8-1.6c-2.7,0-5.3,0.5-7.7,1.7c-2.5,1.1-4.6,2.7-6.5,4.7c-1.9,2-3.4,4.3-4.5,7
		c-1.1,2.7-1.6,5.5-1.6,8.6c0,3.2,0.5,6.1,1.5,8.8c1,2.7,2.4,5.1,4.2,7.1c1.8,2,4,3.5,6.6,4.6c2.5,1.1,5.4,1.6,8.6,1.6
		s6-0.5,8.4-1.5c2.4-1,4.3-2.1,5.8-3.3L239.3,180.5z"/>
	<path d="M243.5,154.6c0-4.2,0.8-8.2,2.5-12.1c1.6-3.8,3.9-7.2,6.8-10.1s6.2-5.2,10-6.9c3.8-1.7,7.9-2.5,12.3-2.5
		c4.3,0,8.3,0.8,12.1,2.5c3.8,1.7,7.2,4,10.1,6.9c2.9,2.9,5.2,6.3,6.9,10.1c1.6,3.8,2.5,7.8,2.5,12.1c0,4.3-0.8,8.4-2.5,12.2
		c-1.6,3.8-3.9,7.1-6.9,10c-3,2.9-6.3,5.2-10.1,6.8c-3.8,1.6-7.8,2.4-12.2,2.4c-4.3,0-8.4-0.8-12.2-2.4c-3.8-1.6-7.1-3.8-10-6.7
		c-2.9-2.8-5.1-6.2-6.8-10C244.3,163.1,243.5,159,243.5,154.6z M253.6,154.5c0,3.1,0.5,6,1.6,8.6c1.1,2.7,2.6,5,4.6,7
		c2,2,4.3,3.6,6.9,4.7c2.6,1.1,5.4,1.7,8.4,1.7c3,0,5.8-0.6,8.3-1.7c2.6-1.1,4.8-2.7,6.7-4.7c1.9-2,3.4-4.3,4.5-7
		c1.1-2.7,1.6-5.5,1.6-8.5c0-3.1-0.6-6-1.7-8.6c-1.1-2.7-2.7-5-4.6-7c-1.9-2-4.2-3.6-6.8-4.7c-2.6-1.1-5.4-1.7-8.4-1.7
		c-3,0-5.8,0.6-8.4,1.7c-2.6,1.2-4.9,2.7-6.8,4.7s-3.5,4.3-4.5,7C254.2,148.7,253.6,151.5,253.6,154.5z"/>
	<path d="M314.5,185.3v-63.8h0.1l33.2,47l-4.2-0.9l33-46h0.2v63.8h-9.8v-41.5l0.6,5l-22.2,31.6h-0.2l-22.7-31.6l1.7-4.6v41.1H314.5z
		"/>
	<path d="M406,123.7c4.7,0,8.7,0.8,12,2.4c3.3,1.6,5.9,3.8,7.7,6.8s2.7,6.5,2.7,10.6c0,2.4-0.4,4.9-1.1,7.3c-0.8,2.5-2,4.7-3.6,6.6
		c-1.6,1.9-3.8,3.5-6.5,4.7c-2.7,1.2-5.9,1.8-9.7,1.8h-9v21.3h-9.9v-61.6H406z M407.4,154.3c2.2,0,4-0.4,5.5-1.1
		c1.4-0.7,2.6-1.6,3.4-2.8c0.8-1.1,1.4-2.3,1.8-3.5c0.4-1.2,0.5-2.3,0.5-3.3c0-1-0.2-2.1-0.5-3.3c-0.3-1.2-0.9-2.3-1.6-3.4
		c-0.8-1.1-1.9-2-3.3-2.7c-1.4-0.7-3.3-1.1-5.5-1.1h-9.1v21.2H407.4z"/>
	<path d="M444.1,163.1c0,2.4,0.6,4.6,1.9,6.6c1.3,2,2.9,3.6,5,4.9c2.1,1.2,4.4,1.9,7,1.9c2.7,0,5.1-0.6,7.3-1.9
		c2.1-1.2,3.8-2.9,5.1-4.9c1.3-2,1.9-4.2,1.9-6.6v-39.4h9.6v39.6c0,4.5-1.1,8.5-3.2,11.9c-2.1,3.4-5,6.1-8.7,8
		c-3.6,1.9-7.7,2.8-12.1,2.8c-4.4,0-8.4-0.9-12-2.8c-3.6-1.9-6.5-4.5-8.6-8c-2.1-3.4-3.2-7.4-3.2-11.9v-39.6h9.9V163.1z"/>
	<path d="M488.4,123.7h41.2v9.5h-15.9v52.1h-9.8v-52.1h-15.5V123.7z"/>
	<path d="M537,123.7h40.9v9.5h-31v16.4h27.6v9.5h-27.6v16.8h32.1v9.5h-42V123.7z"/>
	<path d="M605.1,123.7c3.4,0,6.5,0.5,9.3,1.4c2.8,0.9,5.2,2.2,7.2,3.8c2,1.7,3.5,3.7,4.6,6.1c1.1,2.4,1.6,5.2,1.6,8.5
		c0,2.4-0.4,4.9-1.1,7.3c-0.7,2.4-1.9,4.6-3.6,6.6c-1.7,2-3.8,3.6-6.6,4.7c-2.7,1.2-6,1.8-10,1.8h-9v21.4h-9.9v-61.6H605.1z
		 M606.3,154.3c2.1,0,3.9-0.3,5.4-1c1.5-0.7,2.6-1.6,3.5-2.6c0.8-1.1,1.5-2.2,1.8-3.4c0.4-1.2,0.5-2.4,0.5-3.4c0-1-0.2-2.1-0.5-3.3
		c-0.3-1.2-0.9-2.4-1.7-3.5c-0.8-1.1-1.9-2-3.3-2.8c-1.4-0.7-3.2-1.1-5.3-1.1h-9.1v21.2H606.3z M617,160.3l15.7,25h-11.5l-16-24.7
		L617,160.3z"/>
</g>
</svg>
