<svg width="194" height="74" viewBox="0 0 194 74" fill="none" xmlns="http://www.w3.org/2000/svg">
<path d="M12.4829 65.0441L4.45703 73.087H20.3381L12.4829 65.0441Z" fill="#EC9334"/>
<path d="M37.5173 65.0441L45.5432 73.087H29.6621L37.5173 65.0441Z" fill="#EC9334"/>
<path d="M19.5361 18.6304L25.0006 24.0948L30.465 18.6304H19.5361Z" fill="#EC9334"/>
<path d="M25.0003 0.0853729L14.1738 10.9118V21.5333L25.0003 10.724L35.8267 21.5333V10.9118L25.0003 0.0853729Z" fill="#1C1C1C"/>
<path fill-rule="evenodd" clip-rule="evenodd" d="M25.0002 0C25.0228 0 25.0446 0.00899558 25.0606 0.0250078L35.887 10.8515C35.903 10.8675 35.912 10.8892 35.912 10.9118V21.5333C35.912 21.5679 35.8912 21.599 35.8594 21.6122C35.8275 21.6254 35.7908 21.6182 35.7663 21.5938L25.0002 10.8446L14.2341 21.5938C14.2097 21.6182 14.1729 21.6254 14.1411 21.6122C14.1092 21.599 14.0884 21.5679 14.0884 21.5333V10.9118C14.0884 10.8892 14.0974 10.8675 14.1134 10.8515L24.9398 0.0250078C24.9558 0.00899559 24.9776 5.08917e-09 25.0002 0ZM25.0002 0.206131L14.2591 10.9472V21.3274L24.9399 10.6636C24.9732 10.6303 25.0272 10.6303 25.0605 10.6636L35.7413 21.3274V10.9472L25.0002 0.206131Z" fill="#1C1C1C"/>
<path d="M37.6025 24.0948L50 36.7997L45.6455 54.081L37.6025 62.9608V24.0948Z" fill="#1C1C1C"/>
<path d="M12.3975 24.0948L0 36.7997L4.35448 54.081L12.3975 62.9608V24.0948Z" fill="#1C1C1C"/>
<path fill-rule="evenodd" clip-rule="evenodd" d="M14.3155 64.4518C14.4822 64.2851 14.7525 64.2851 14.9192 64.4518L20.1732 69.7059H29.8263L35.0804 64.4518C35.2471 64.2851 35.5174 64.2851 35.6841 64.4518C35.8508 64.6186 35.8508 64.8889 35.6841 65.0556L30.3051 70.4346C30.225 70.5147 30.1164 70.5597 30.0032 70.5597H19.9964C19.8832 70.5597 19.7746 70.5147 19.6945 70.4346L14.3155 65.0556C14.1487 64.8889 14.1487 64.6186 14.3155 64.4518Z" fill="#1C1C1C"/>
<path d="M76.544 15.0475V29.5435H73.856V15.0475H68.6V12.7915H81.8V15.0475H76.544ZM83.7346 27.4315H87.0226V19.2715H83.7346V17.1595H89.6386V20.4475H89.7826C89.8946 20.0155 90.0546 19.5995 90.2626 19.1995C90.4706 18.7995 90.7346 18.4555 91.0546 18.1675C91.3746 17.8635 91.7666 17.6235 92.2306 17.4475C92.6946 17.2555 93.2386 17.1595 93.8626 17.1595H95.3506V19.6555H92.9026C91.9426 19.6555 91.1586 19.9435 90.5506 20.5195C89.9426 21.0795 89.6386 21.8395 89.6386 22.7995V27.4315H94.1266V29.5435H83.7346V27.4315ZM105.589 27.4315H105.469C105.341 27.7515 105.173 28.0635 104.965 28.3675C104.773 28.6555 104.533 28.9115 104.245 29.1355C103.957 29.3435 103.621 29.5115 103.237 29.6395C102.853 29.7675 102.405 29.8315 101.893 29.8315C100.645 29.8315 99.6373 29.4235 98.8693 28.6075C98.1013 27.7915 97.7173 26.6315 97.7173 25.1275V17.1595H100.333V24.7435C100.333 26.7115 101.189 27.6955 102.901 27.6955C103.237 27.6955 103.565 27.6555 103.885 27.5755C104.205 27.4795 104.493 27.3435 104.749 27.1675C105.005 26.9915 105.205 26.7755 105.349 26.5195C105.509 26.2475 105.589 25.9275 105.589 25.5595V17.1595H108.205V29.5435H105.589V27.4315ZM116.956 29.8315C115.612 29.8315 114.452 29.6155 113.476 29.1835C112.516 28.7515 111.74 28.1755 111.148 27.4555L112.756 26.0155C113.3 26.6075 113.908 27.0635 114.58 27.3835C115.268 27.6875 116.076 27.8395 117.004 27.8395C117.852 27.8395 118.532 27.6955 119.044 27.4075C119.572 27.1195 119.836 26.6715 119.836 26.0635C119.836 25.8075 119.788 25.5915 119.692 25.4155C119.596 25.2395 119.46 25.0955 119.284 24.9835C119.108 24.8715 118.9 24.7835 118.66 24.7195C118.436 24.6555 118.196 24.6075 117.94 24.5755L115.972 24.2635C115.492 24.1995 115.004 24.0955 114.508 23.9515C114.012 23.8075 113.564 23.6075 113.164 23.3515C112.78 23.0795 112.46 22.7355 112.204 22.3195C111.964 21.9035 111.844 21.3755 111.844 20.7355C111.844 19.4715 112.324 18.5115 113.284 17.8555C114.26 17.1995 115.54 16.8715 117.124 16.8715C118.276 16.8715 119.268 17.0475 120.1 17.3995C120.948 17.7355 121.652 18.2075 122.212 18.8155L120.748 20.3515C120.428 19.9835 119.972 19.6475 119.38 19.3435C118.788 19.0235 118.004 18.8635 117.028 18.8635C115.284 18.8635 114.412 19.4155 114.412 20.5195C114.412 21.0475 114.596 21.4155 114.964 21.6235C115.348 21.8155 115.796 21.9435 116.308 22.0075L118.276 22.3195C118.772 22.3995 119.26 22.5035 119.74 22.6315C120.236 22.7595 120.676 22.9595 121.06 23.2315C121.46 23.4875 121.78 23.8235 122.02 24.2395C122.276 24.6555 122.404 25.1835 122.404 25.8235C122.404 27.0715 121.916 28.0555 120.94 28.7755C119.98 29.4795 118.652 29.8315 116.956 29.8315ZM131.587 29.5435C130.499 29.5435 129.699 29.2555 129.187 28.6795C128.675 28.0875 128.419 27.3275 128.419 26.3995V19.2715H124.603V17.1595H127.315C127.779 17.1595 128.107 17.0715 128.299 16.8955C128.491 16.7035 128.587 16.3675 128.587 15.8875V12.7915H131.035V17.1595H136.315V19.2715H131.035V27.4315H136.315V29.5435H131.587ZM139.353 27.4315H143.457V13.8955H139.353V11.7835H146.073V27.4315H150.177V29.5435H139.353V27.4315ZM158.928 29.8315C157.984 29.8315 157.136 29.6795 156.384 29.3755C155.632 29.0715 155 28.6395 154.488 28.0795C153.976 27.5195 153.584 26.8475 153.312 26.0635C153.04 25.2635 152.904 24.3675 152.904 23.3755C152.904 22.3835 153.04 21.4875 153.312 20.6875C153.6 19.8875 153.992 19.2075 154.488 18.6475C155 18.0715 155.616 17.6315 156.336 17.3275C157.056 17.0235 157.856 16.8715 158.736 16.8715C159.6 16.8715 160.384 17.0235 161.088 17.3275C161.792 17.6155 162.392 18.0315 162.888 18.5755C163.384 19.1195 163.76 19.7675 164.016 20.5195C164.288 21.2715 164.424 22.1035 164.424 23.0155V23.9995H155.544V24.4075C155.544 25.3835 155.848 26.1835 156.456 26.8075C157.064 27.4155 157.904 27.7195 158.976 27.7195C159.776 27.7195 160.456 27.5515 161.016 27.2155C161.592 26.8635 162.056 26.3995 162.408 25.8235L164.04 27.2635C163.624 27.9835 162.984 28.5915 162.12 29.0875C161.272 29.5835 160.208 29.8315 158.928 29.8315ZM158.736 18.8635C158.272 18.8635 157.84 18.9435 157.44 19.1035C157.056 19.2635 156.72 19.4955 156.432 19.7995C156.16 20.0875 155.944 20.4315 155.784 20.8315C155.624 21.2315 155.544 21.6715 155.544 22.1515V22.3195H161.76V22.0795C161.76 21.1035 161.48 20.3275 160.92 19.7515C160.376 19.1595 159.648 18.8635 158.736 18.8635ZM172.598 29.8315C171.254 29.8315 170.094 29.6155 169.118 29.1835C168.158 28.7515 167.382 28.1755 166.79 27.4555L168.398 26.0155C168.942 26.6075 169.55 27.0635 170.222 27.3835C170.91 27.6875 171.718 27.8395 172.646 27.8395C173.494 27.8395 174.174 27.6955 174.686 27.4075C175.214 27.1195 175.478 26.6715 175.478 26.0635C175.478 25.8075 175.43 25.5915 175.334 25.4155C175.238 25.2395 175.102 25.0955 174.926 24.9835C174.75 24.8715 174.542 24.7835 174.302 24.7195C174.078 24.6555 173.838 24.6075 173.582 24.5755L171.614 24.2635C171.134 24.1995 170.646 24.0955 170.15 23.9515C169.654 23.8075 169.206 23.6075 168.806 23.3515C168.422 23.0795 168.102 22.7355 167.846 22.3195C167.606 21.9035 167.486 21.3755 167.486 20.7355C167.486 19.4715 167.966 18.5115 168.926 17.8555C169.902 17.1995 171.182 16.8715 172.766 16.8715C173.918 16.8715 174.91 17.0475 175.742 17.3995C176.59 17.7355 177.294 18.2075 177.854 18.8155L176.39 20.3515C176.07 19.9835 175.614 19.6475 175.022 19.3435C174.43 19.0235 173.646 18.8635 172.67 18.8635C170.926 18.8635 170.054 19.4155 170.054 20.5195C170.054 21.0475 170.238 21.4155 170.606 21.6235C170.99 21.8155 171.438 21.9435 171.95 22.0075L173.918 22.3195C174.414 22.3995 174.902 22.5035 175.382 22.6315C175.878 22.7595 176.318 22.9595 176.702 23.2315C177.102 23.4875 177.422 23.8235 177.662 24.2395C177.918 24.6555 178.046 25.1835 178.046 25.8235C178.046 27.0715 177.558 28.0555 176.582 28.7755C175.622 29.4795 174.294 29.8315 172.598 29.8315ZM186.509 29.8315C185.165 29.8315 184.005 29.6155 183.029 29.1835C182.069 28.7515 181.293 28.1755 180.701 27.4555L182.309 26.0155C182.853 26.6075 183.461 27.0635 184.133 27.3835C184.821 27.6875 185.629 27.8395 186.557 27.8395C187.405 27.8395 188.085 27.6955 188.597 27.4075C189.125 27.1195 189.389 26.6715 189.389 26.0635C189.389 25.8075 189.341 25.5915 189.245 25.4155C189.149 25.2395 189.013 25.0955 188.837 24.9835C188.661 24.8715 188.453 24.7835 188.213 24.7195C187.989 24.6555 187.749 24.6075 187.493 24.5755L185.525 24.2635C185.045 24.1995 184.557 24.0955 184.061 23.9515C183.565 23.8075 183.117 23.6075 182.717 23.3515C182.333 23.0795 182.013 22.7355 181.757 22.3195C181.517 21.9035 181.397 21.3755 181.397 20.7355C181.397 19.4715 181.877 18.5115 182.837 17.8555C183.813 17.1995 185.093 16.8715 186.677 16.8715C187.829 16.8715 188.821 17.0475 189.653 17.3995C190.501 17.7355 191.205 18.2075 191.765 18.8155L190.301 20.3515C189.981 19.9835 189.525 19.6475 188.933 19.3435C188.341 19.0235 187.557 18.8635 186.581 18.8635C184.837 18.8635 183.965 19.4155 183.965 20.5195C183.965 21.0475 184.149 21.4155 184.517 21.6235C184.901 21.8155 185.349 21.9435 185.861 22.0075L187.829 22.3195C188.325 22.3995 188.813 22.5035 189.293 22.6315C189.789 22.7595 190.229 22.9595 190.613 23.2315C191.013 23.4875 191.333 23.8235 191.573 24.2395C191.829 24.6555 191.957 25.1835 191.957 25.8235C191.957 27.0715 191.469 28.0555 190.493 28.7755C189.533 29.4795 188.205 29.8315 186.509 29.8315Z" fill="#1C1C1C"/>
<path d="M75.68 61.8315C73.552 61.8315 71.968 61.0795 70.928 59.5755C69.904 58.0715 69.392 55.9355 69.392 53.1675C69.392 50.3995 69.904 48.2635 70.928 46.7595C71.968 45.2555 73.552 44.5035 75.68 44.5035C76.496 44.5035 77.2 44.6155 77.792 44.8395C78.4 45.0475 78.92 45.3435 79.352 45.7275C79.784 46.0955 80.144 46.5355 80.432 47.0475C80.736 47.5435 80.984 48.0795 81.176 48.6555L78.752 49.4715C78.624 49.0875 78.48 48.7275 78.32 48.3915C78.16 48.0555 77.96 47.7675 77.72 47.5275C77.48 47.2875 77.192 47.0955 76.856 46.9515C76.536 46.8075 76.136 46.7355 75.656 46.7355C74.472 46.7355 73.608 47.1915 73.064 48.1035C72.52 48.9995 72.248 50.2155 72.248 51.7515V54.5835C72.248 56.1195 72.52 57.3435 73.064 58.2555C73.608 59.1515 74.472 59.5995 75.656 59.5995C76.136 59.5995 76.536 59.5275 76.856 59.3835C77.192 59.2395 77.48 59.0475 77.72 58.8075C77.96 58.5675 78.16 58.2795 78.32 57.9435C78.48 57.6075 78.624 57.2475 78.752 56.8635L81.176 57.6795C80.984 58.2555 80.736 58.7995 80.432 59.3115C80.144 59.8075 79.784 60.2475 79.352 60.6315C78.92 60.9995 78.4 61.2955 77.792 61.5195C77.2 61.7275 76.496 61.8315 75.68 61.8315ZM89.5906 61.8315C88.6786 61.8315 87.8546 61.6795 87.1186 61.3755C86.3986 61.0715 85.7826 60.6395 85.2706 60.0795C84.7746 59.5195 84.3906 58.8395 84.1186 58.0395C83.8466 57.2395 83.7106 56.3435 83.7106 55.3515C83.7106 54.3595 83.8466 53.4635 84.1186 52.6635C84.3906 51.8635 84.7746 51.1835 85.2706 50.6235C85.7826 50.0635 86.3986 49.6315 87.1186 49.3275C87.8546 49.0235 88.6786 48.8715 89.5906 48.8715C90.5026 48.8715 91.3186 49.0235 92.0386 49.3275C92.7746 49.6315 93.3906 50.0635 93.8866 50.6235C94.3986 51.1835 94.7906 51.8635 95.0626 52.6635C95.3346 53.4635 95.4706 54.3595 95.4706 55.3515C95.4706 56.3435 95.3346 57.2395 95.0626 58.0395C94.7906 58.8395 94.3986 59.5195 93.8866 60.0795C93.3906 60.6395 92.7746 61.0715 92.0386 61.3755C91.3186 61.6795 90.5026 61.8315 89.5906 61.8315ZM89.5906 59.7675C90.5506 59.7675 91.3106 59.4795 91.8706 58.9035C92.4466 58.3115 92.7346 57.4395 92.7346 56.2875V54.4155C92.7346 53.2635 92.4466 52.3995 91.8706 51.8235C91.3106 51.2315 90.5506 50.9355 89.5906 50.9355C88.6306 50.9355 87.8626 51.2315 87.2866 51.8235C86.7266 52.3995 86.4466 53.2635 86.4466 54.4155V56.2875C86.4466 57.4395 86.7266 58.3115 87.2866 58.9035C87.8626 59.4795 88.6306 59.7675 89.5906 59.7675ZM97.8373 61.5435V49.1595H100.069V50.7675H100.189C100.381 50.2395 100.653 49.7915 101.005 49.4235C101.373 49.0555 101.893 48.8715 102.565 48.8715C103.221 48.8715 103.725 49.0555 104.077 49.4235C104.445 49.7755 104.677 50.2635 104.773 50.8875H104.869C105.093 50.3275 105.405 49.8555 105.805 49.4715C106.205 49.0715 106.781 48.8715 107.533 48.8715C108.493 48.8715 109.157 49.2075 109.525 49.8795C109.909 50.5515 110.101 51.5355 110.101 52.8315V61.5435H107.869V53.1675C107.869 52.3035 107.765 51.7115 107.557 51.3915C107.349 51.0555 107.013 50.8875 106.549 50.8875C106.133 50.8875 105.781 51.0315 105.493 51.3195C105.221 51.5915 105.085 52.0075 105.085 52.5675V61.5435H102.853V53.1675C102.853 52.3035 102.749 51.7115 102.541 51.3915C102.349 51.0555 102.021 50.8875 101.557 50.8875C101.125 50.8875 100.765 51.0315 100.477 51.3195C100.205 51.5915 100.069 52.0075 100.069 52.5675V61.5435H97.8373ZM113.068 49.1595H115.684V51.2715H115.828C116.196 50.5195 116.684 49.9355 117.292 49.5195C117.9 49.0875 118.66 48.8715 119.572 48.8715C121.028 48.8715 122.188 49.4155 123.052 50.5035C123.916 51.5915 124.348 53.2075 124.348 55.3515C124.348 57.4955 123.916 59.1115 123.052 60.1995C122.188 61.2875 121.028 61.8315 119.572 61.8315C118.66 61.8315 117.9 61.6235 117.292 61.2075C116.684 60.7755 116.196 60.1835 115.828 59.4315H115.684V66.3435H113.068V49.1595ZM118.492 59.6955C119.484 59.6955 120.244 59.3915 120.772 58.7835C121.316 58.1755 121.588 57.3675 121.588 56.3595V54.3435C121.588 53.3355 121.316 52.5275 120.772 51.9195C120.244 51.3115 119.484 51.0075 118.492 51.0075C118.108 51.0075 117.748 51.0555 117.412 51.1515C117.076 51.2475 116.78 51.3915 116.524 51.5835C116.268 51.7755 116.06 52.0155 115.9 52.3035C115.756 52.5755 115.684 52.9035 115.684 53.2875V57.4155C115.684 57.7995 115.756 58.1355 115.9 58.4235C116.06 58.6955 116.268 58.9275 116.524 59.1195C116.78 59.3115 117.076 59.4555 117.412 59.5515C117.748 59.6475 118.108 59.6955 118.492 59.6955ZM135.331 59.4315H135.211C135.083 59.7515 134.915 60.0635 134.707 60.3675C134.515 60.6555 134.275 60.9115 133.987 61.1355C133.699 61.3435 133.363 61.5115 132.979 61.6395C132.595 61.7675 132.147 61.8315 131.635 61.8315C130.387 61.8315 129.379 61.4235 128.611 60.6075C127.843 59.7915 127.459 58.6315 127.459 57.1275V49.1595H130.075V56.7435C130.075 58.7115 130.931 59.6955 132.643 59.6955C132.979 59.6955 133.307 59.6555 133.627 59.5755C133.947 59.4795 134.235 59.3435 134.491 59.1675C134.747 58.9915 134.947 58.7755 135.091 58.5195C135.251 58.2475 135.331 57.9275 135.331 57.5595V49.1595H137.947V61.5435H135.331V59.4315ZM147.897 61.5435C146.809 61.5435 146.009 61.2555 145.497 60.6795C144.985 60.0875 144.729 59.3275 144.729 58.3995V51.2715H140.913V49.1595H143.625C144.089 49.1595 144.417 49.0715 144.609 48.8955C144.801 48.7035 144.897 48.3675 144.897 47.8875V44.7915H147.345V49.1595H152.625V51.2715H147.345V59.4315H152.625V61.5435H147.897ZM161.808 61.8315C160.864 61.8315 160.016 61.6795 159.264 61.3755C158.512 61.0715 157.88 60.6395 157.368 60.0795C156.856 59.5195 156.464 58.8475 156.192 58.0635C155.92 57.2635 155.784 56.3675 155.784 55.3755C155.784 54.3835 155.92 53.4875 156.192 52.6875C156.48 51.8875 156.872 51.2075 157.368 50.6475C157.88 50.0715 158.496 49.6315 159.216 49.3275C159.936 49.0235 160.736 48.8715 161.616 48.8715C162.48 48.8715 163.264 49.0235 163.968 49.3275C164.672 49.6155 165.272 50.0315 165.768 50.5755C166.264 51.1195 166.64 51.7675 166.896 52.5195C167.168 53.2715 167.304 54.1035 167.304 55.0155V55.9995H158.424V56.4075C158.424 57.3835 158.728 58.1835 159.336 58.8075C159.944 59.4155 160.784 59.7195 161.856 59.7195C162.656 59.7195 163.336 59.5515 163.896 59.2155C164.472 58.8635 164.936 58.3995 165.288 57.8235L166.92 59.2635C166.504 59.9835 165.864 60.5915 165 61.0875C164.152 61.5835 163.088 61.8315 161.808 61.8315ZM161.616 50.8635C161.152 50.8635 160.72 50.9435 160.32 51.1035C159.936 51.2635 159.6 51.4955 159.312 51.7995C159.04 52.0875 158.824 52.4315 158.664 52.8315C158.504 53.2315 158.424 53.6715 158.424 54.1515V54.3195H164.64V54.0795C164.64 53.1035 164.36 52.3275 163.8 51.7515C163.256 51.1595 162.528 50.8635 161.616 50.8635ZM170.558 59.4315H173.846V51.2715H170.558V49.1595H176.462V52.4475H176.606C176.718 52.0155 176.878 51.5995 177.086 51.1995C177.294 50.7995 177.558 50.4555 177.878 50.1675C178.198 49.8635 178.59 49.6235 179.054 49.4475C179.518 49.2555 180.062 49.1595 180.686 49.1595H182.174V51.6555H179.726C178.766 51.6555 177.982 51.9435 177.374 52.5195C176.766 53.0795 176.462 53.8395 176.462 54.7995V59.4315H180.95V61.5435H170.558V59.4315Z" fill="#1C1C1C"/>
</svg>
