<svg width="190" height="74" viewBox="0 0 190 74" fill="none" xmlns="http://www.w3.org/2000/svg">
<path d="M12.4829 65.0441L4.45703 73.087H20.3381L12.4829 65.0441Z" fill="#EC9334"/>
<path d="M37.5173 65.0441L45.5432 73.087H29.6621L37.5173 65.0441Z" fill="#EC9334"/>
<path d="M19.5361 18.6304L25.0006 24.0948L30.465 18.6304H19.5361Z" fill="#EC9334"/>
<path d="M25.0003 0.0853729L14.1738 10.9118V21.5333L25.0003 10.724L35.8267 21.5333V10.9118L25.0003 0.0853729Z" fill="#1C1C1C"/>
<path fill-rule="evenodd" clip-rule="evenodd" d="M25.0002 0C25.0228 0 25.0446 0.00899558 25.0606 0.0250078L35.887 10.8515C35.903 10.8675 35.912 10.8892 35.912 10.9118V21.5333C35.912 21.5679 35.8912 21.599 35.8594 21.6122C35.8275 21.6254 35.7908 21.6182 35.7663 21.5938L25.0002 10.8446L14.2341 21.5938C14.2097 21.6182 14.1729 21.6254 14.1411 21.6122C14.1092 21.599 14.0884 21.5679 14.0884 21.5333V10.9118C14.0884 10.8892 14.0974 10.8675 14.1134 10.8515L24.9398 0.0250078C24.9558 0.00899559 24.9776 5.08917e-09 25.0002 0ZM25.0002 0.206131L14.2591 10.9472V21.3274L24.9399 10.6636C24.9732 10.6303 25.0272 10.6303 25.0605 10.6636L35.7413 21.3274V10.9472L25.0002 0.206131Z" fill="#1C1C1C"/>
<path d="M37.6025 24.0948L50 36.7997L45.6455 54.081L37.6025 62.9608V24.0948Z" fill="#1C1C1C"/>
<path d="M12.3975 24.0948L0 36.7997L4.35448 54.081L12.3975 62.9608V24.0948Z" fill="#1C1C1C"/>
<path fill-rule="evenodd" clip-rule="evenodd" d="M14.3155 64.4518C14.4822 64.2851 14.7525 64.2851 14.9192 64.4518L20.1732 69.7059H29.8263L35.0804 64.4518C35.2471 64.2851 35.5174 64.2851 35.6841 64.4518C35.8508 64.6186 35.8508 64.8889 35.6841 65.0556L30.3051 70.4346C30.225 70.5147 30.1164 70.5597 30.0032 70.5597H19.9964C19.8832 70.5597 19.7746 70.5147 19.6945 70.4346L14.3155 65.0556C14.1487 64.8889 14.1487 64.6186 14.3155 64.4518Z" fill="#1C1C1C"/>
<path d="M74.44 29.5435V12.5475H68.196V9.94352H83.568V12.5475H77.324V29.5435H74.44ZM83.5173 29.5435V15.5435H90.4893V18.1475H86.2893V29.5435H83.5173ZM101.857 29.5435L101.493 28.1995H101.241C100.961 28.6662 100.532 29.0675 99.9535 29.4035C99.3935 29.7209 98.6841 29.8795 97.8255 29.8795C96.2015 29.8795 94.9135 29.3475 93.9615 28.2835C93.0281 27.2195 92.5615 25.7729 92.5615 23.9435V15.5435H95.3335V22.8235C95.3335 24.3355 95.5668 25.4742 96.0335 26.2395C96.5188 27.0049 97.2468 27.3875 98.2175 27.3875C99.2628 27.3875 100.047 27.0515 100.569 26.3795C101.111 25.7075 101.381 24.7089 101.381 23.3835V15.5435H104.153V29.5435H101.857ZM106.767 29.5435V26.9395H114.019C114.019 26.4355 113.888 25.9875 113.627 25.5955C113.384 25.1849 113.067 24.8395 112.675 24.5595C112.283 24.2609 111.751 23.8875 111.079 23.4395C110.183 22.8795 109.446 22.3755 108.867 21.9275C108.307 21.4609 107.831 20.8729 107.439 20.1635C107.047 19.4542 106.851 18.6329 106.851 17.6995V15.5435H116.595V18.1475H109.903C109.903 18.6702 110.034 19.1369 110.295 19.5475C110.575 19.9395 110.911 20.2942 111.303 20.6115C111.714 20.9289 112.255 21.3022 112.927 21.7315C113.804 22.2915 114.523 22.8049 115.083 23.2715C115.643 23.7195 116.119 24.2889 116.511 24.9795C116.903 25.6702 117.099 26.4729 117.099 27.3875V29.5435H106.767ZM121.12 29.5435V18.1475H118.88V15.5435C119.571 15.4689 120.112 15.2449 120.504 14.8715C120.915 14.4795 121.12 13.9382 121.12 13.2475V11.1475H123.752V15.5435H126.356V18.1475H123.752V27.1635H127.56V29.5435H121.12ZM130.172 9.60752H132.944V29.5435H130.172V9.60752ZM138.577 23.3275C138.67 24.1115 138.894 24.8022 139.249 25.3995C139.604 25.9782 140.052 26.4262 140.593 26.7435C141.153 27.0609 141.769 27.2195 142.441 27.2195C143.262 27.2195 143.981 27.0329 144.597 26.6595C145.232 26.2675 145.708 25.7169 146.025 25.0075L148.545 25.8755C148.041 27.1449 147.248 28.1342 146.165 28.8435C145.082 29.5342 143.841 29.8795 142.441 29.8795C141.19 29.8795 140.061 29.5622 139.053 28.9275C138.064 28.2742 137.28 27.3875 136.701 26.2675C136.141 25.1289 135.861 23.8595 135.861 22.4595C135.861 21.0969 136.141 19.8649 136.701 18.7635C137.28 17.6622 138.064 16.7942 139.053 16.1595C140.061 15.5249 141.19 15.2075 142.441 15.2075C143.692 15.2075 144.812 15.5155 145.801 16.1315C146.809 16.7475 147.593 17.6062 148.153 18.7075C148.732 19.7902 149.03 21.0129 149.049 22.3755V23.3275H138.577ZM142.441 17.8675C141.489 17.8675 140.668 18.1755 139.977 18.7915C139.305 19.3889 138.866 20.2009 138.661 21.2275H146.249C146.044 20.2009 145.596 19.3889 144.905 18.7915C144.233 18.1755 143.412 17.8675 142.441 17.8675ZM150.681 29.5435V26.9395H157.933C157.933 26.4355 157.802 25.9875 157.541 25.5955C157.298 25.1849 156.981 24.8395 156.589 24.5595C156.197 24.2609 155.665 23.8875 154.993 23.4395C154.097 22.8795 153.36 22.3755 152.781 21.9275C152.221 21.4609 151.745 20.8729 151.353 20.1635C150.961 19.4542 150.765 18.6329 150.765 17.6995V15.5435H160.509V18.1475H153.817C153.817 18.6702 153.948 19.1369 154.209 19.5475C154.489 19.9395 154.825 20.2942 155.217 20.6115C155.628 20.9289 156.169 21.3022 156.841 21.7315C157.718 22.2915 158.437 22.8049 158.997 23.2715C159.557 23.7195 160.033 24.2889 160.425 24.9795C160.817 25.6702 161.013 26.4729 161.013 27.3875V29.5435H150.681ZM162.794 29.5435V26.9395H170.046C170.046 26.4355 169.916 25.9875 169.654 25.5955C169.412 25.1849 169.094 24.8395 168.702 24.5595C168.31 24.2609 167.778 23.8875 167.106 23.4395C166.21 22.8795 165.473 22.3755 164.894 21.9275C164.334 21.4609 163.858 20.8729 163.466 20.1635C163.074 19.4542 162.878 18.6329 162.878 17.6995V15.5435H172.622V18.1475H165.93C165.93 18.6702 166.061 19.1369 166.322 19.5475C166.602 19.9395 166.938 20.2942 167.33 20.6115C167.741 20.9289 168.282 21.3022 168.954 21.7315C169.832 22.2915 170.55 22.8049 171.11 23.2715C171.67 23.7195 172.146 24.2889 172.538 24.9795C172.93 25.6702 173.126 26.4729 173.126 27.3875V29.5435H162.794Z" fill="#1C1C1C"/>
<path d="M78.528 61.8795C76.6987 61.8795 75.056 61.4409 73.6 60.5635C72.1627 59.6862 71.0427 58.4822 70.24 56.9515C69.4373 55.4022 69.036 53.6662 69.036 51.7435C69.036 49.8209 69.4373 48.0942 70.24 46.5635C71.0427 45.0142 72.1627 43.8009 73.6 42.9235C75.056 42.0462 76.6987 41.6075 78.528 41.6075C80.6187 41.6075 82.4387 42.1582 83.988 43.2595C85.556 44.3609 86.676 45.8635 87.348 47.7675L84.464 48.7195C83.9973 47.3569 83.2413 46.2929 82.196 45.5275C81.1693 44.7622 79.9467 44.3795 78.528 44.3795C77.296 44.3795 76.1853 44.6969 75.196 45.3315C74.2253 45.9662 73.46 46.8435 72.9 47.9635C72.3587 49.0835 72.088 50.3435 72.088 51.7435C72.088 53.1435 72.3587 54.4035 72.9 55.5235C73.46 56.6435 74.2253 57.5209 75.196 58.1555C76.1853 58.7902 77.296 59.1075 78.528 59.1075C79.9467 59.1075 81.1693 58.7249 82.196 57.9595C83.2413 57.1942 83.9973 56.1302 84.464 54.7675L87.348 55.6915C86.6573 57.6142 85.5373 59.1262 83.988 60.2275C82.4387 61.3289 80.6187 61.8795 78.528 61.8795ZM95.7944 47.2355C97.1384 47.2355 98.333 47.5529 99.3784 48.1875C100.442 48.8222 101.264 49.6995 101.842 50.8195C102.421 51.9209 102.71 53.1622 102.71 54.5435C102.71 55.9249 102.421 57.1755 101.842 58.2955C101.264 59.4155 100.442 60.2929 99.3784 60.9275C98.333 61.5622 97.1384 61.8795 95.7944 61.8795H95.7384C94.3944 61.8795 93.1997 61.5622 92.1544 60.9275C91.109 60.2929 90.297 59.4155 89.7184 58.2955C89.1397 57.1755 88.8504 55.9249 88.8504 54.5435C88.8504 53.1622 89.1397 51.9209 89.7184 50.8195C90.297 49.6995 91.109 48.8222 92.1544 48.1875C93.1997 47.5529 94.3944 47.2355 95.7384 47.2355H95.7944ZM95.7944 59.1075C97.0637 59.1075 98.0717 58.6875 98.8184 57.8475C99.565 56.9889 99.9384 55.8875 99.9384 54.5435C99.9384 53.1995 99.565 52.1075 98.8184 51.2675C98.0717 50.4275 97.0637 50.0075 95.7944 50.0075H95.7384C94.4877 50.0075 93.489 50.4275 92.7424 51.2675C91.9957 52.1075 91.6224 53.1995 91.6224 54.5435C91.6224 55.8875 91.9957 56.9889 92.7424 57.8475C93.489 58.6875 94.4877 59.1075 95.7384 59.1075H95.7944ZM119.471 47.2075C121.039 47.2075 122.243 47.7209 123.083 48.7475C123.923 49.7742 124.343 51.2395 124.343 53.1435V61.5435H121.571V54.2635C121.571 52.7515 121.375 51.6129 120.983 50.8475C120.591 50.0822 119.91 49.6995 118.939 49.6995C117.894 49.6995 117.156 50.0449 116.727 50.7355C116.298 51.4075 116.083 52.3969 116.083 53.7035V61.5435H113.311V54.2635C113.311 52.7515 113.115 51.6129 112.723 50.8475C112.331 50.0822 111.65 49.6995 110.679 49.6995C109.634 49.6995 108.896 50.0449 108.467 50.7355C108.038 51.4075 107.823 52.3969 107.823 53.7035V61.5435H105.051V47.5435H107.347L107.683 48.8875H107.935C108.159 48.4209 108.542 48.0289 109.083 47.7115C109.643 47.3755 110.315 47.2075 111.099 47.2075C112.051 47.2075 112.816 47.4129 113.395 47.8235C113.992 48.2155 114.468 48.8222 114.823 49.6435H115.075C115.467 48.8782 116.055 48.2809 116.839 47.8515C117.623 47.4222 118.5 47.2075 119.471 47.2075ZM127.528 47.5435H129.824L130.272 49.1115H130.524C130.878 48.5515 131.429 48.0942 132.176 47.7395C132.922 47.3849 133.734 47.2075 134.612 47.2075C135.9 47.2075 137.048 47.5249 138.056 48.1595C139.064 48.7942 139.857 49.6715 140.436 50.7915C141.014 51.8929 141.304 53.1435 141.304 54.5435C141.304 55.9435 141.014 57.2035 140.436 58.3235C139.857 59.4249 139.064 60.2929 138.056 60.9275C137.048 61.5622 135.9 61.8795 134.612 61.8795C134.033 61.8795 133.436 61.7769 132.82 61.5715C132.204 61.3662 131.662 61.0955 131.196 60.7595C130.748 60.4049 130.449 60.0222 130.3 59.6115V67.2555H127.528V47.5435ZM134.332 49.7555C133.548 49.7555 132.848 49.9609 132.232 50.3715C131.616 50.7635 131.14 51.3142 130.804 52.0235C130.468 52.7329 130.3 53.5542 130.3 54.4875C130.3 55.4209 130.468 56.2515 130.804 56.9795C131.14 57.6889 131.616 58.2489 132.232 58.6595C132.848 59.0515 133.548 59.2475 134.332 59.2475C135.134 59.2475 135.853 59.0422 136.488 58.6315C137.122 58.2209 137.617 57.6609 137.972 56.9515C138.345 56.2235 138.532 55.4022 138.532 54.4875C138.532 53.5915 138.345 52.7889 137.972 52.0795C137.617 51.3515 137.122 50.7822 136.488 50.3715C135.853 49.9609 135.134 49.7555 134.332 49.7555ZM152.663 61.5435L152.299 60.1995H152.047C151.767 60.6662 151.338 61.0675 150.759 61.4035C150.199 61.7209 149.49 61.8795 148.631 61.8795C147.007 61.8795 145.719 61.3475 144.767 60.2835C143.834 59.2195 143.367 57.7729 143.367 55.9435V47.5435H146.139V54.8235C146.139 56.3355 146.373 57.4742 146.839 58.2395C147.325 59.0049 148.053 59.3875 149.023 59.3875C150.069 59.3875 150.853 59.0515 151.375 58.3795C151.917 57.7075 152.187 56.7089 152.187 55.3835V47.5435H154.959V61.5435H152.663ZM159.533 61.5435V50.1475H157.293V47.5435C157.984 47.4689 158.525 47.2449 158.917 46.8715C159.328 46.4795 159.533 45.9382 159.533 45.2475V43.1475H162.165V47.5435H164.769V50.1475H162.165V59.1635H165.973V61.5435H159.533ZM169.354 55.3275C169.447 56.1115 169.671 56.8022 170.026 57.3995C170.381 57.9782 170.829 58.4262 171.37 58.7435C171.93 59.0609 172.546 59.2195 173.218 59.2195C174.039 59.2195 174.758 59.0329 175.374 58.6595C176.009 58.2675 176.485 57.7169 176.802 57.0075L179.322 57.8755C178.818 59.1449 178.025 60.1342 176.942 60.8435C175.859 61.5342 174.618 61.8795 173.218 61.8795C171.967 61.8795 170.838 61.5622 169.83 60.9275C168.841 60.2742 168.057 59.3875 167.478 58.2675C166.918 57.1289 166.638 55.8595 166.638 54.4595C166.638 53.0969 166.918 51.8649 167.478 50.7635C168.057 49.6622 168.841 48.7942 169.83 48.1595C170.838 47.5249 171.967 47.2075 173.218 47.2075C174.469 47.2075 175.589 47.5155 176.578 48.1315C177.586 48.7475 178.37 49.6062 178.93 50.7075C179.509 51.7902 179.807 53.0129 179.826 54.3755V55.3275H169.354ZM173.218 49.8675C172.266 49.8675 171.445 50.1755 170.754 50.7915C170.082 51.3889 169.643 52.2009 169.438 53.2275H177.026C176.821 52.2009 176.373 51.3889 175.682 50.7915C175.01 50.1755 174.189 49.8675 173.218 49.8675ZM182.018 61.5435V47.5435H188.99V50.1475H184.79V61.5435H182.018Z" fill="#1C1C1C"/>
</svg>
