<?xml version="1.0" encoding="UTF-8" standalone="no"?><!DOCTYPE svg PUBLIC "-//W3C//DTD SVG 1.1//EN" "http://www.w3.org/Graphics/SVG/1.1/DTD/svg11.dtd"><svg width="723px" height="219px" version="1.1" xmlns="http://www.w3.org/2000/svg" xmlns:xlink="http://www.w3.org/1999/xlink" xml:space="preserve" xmlns:serif="http://www.serif.com/" style="fill-rule:evenodd;clip-rule:evenodd;stroke-linecap:round;stroke-linejoin:round;stroke-miterlimit:10;"><g><clipPath id="_clip1"><rect x="0" y="0" width="723" height="219"/></clipPath><g clip-path="url(#_clip1)"><path d="M80,49.904l-32.461,-17.613l0,-31.897l32.461,17.664l32.461,-17.664l0,31.897l-32.461,17.613Z" style="fill-rule:nonzero;"/><path d="M46.566,39.766l-3.379,25.447" style="fill:none;fill-rule:nonzero;stroke:#000;stroke-width:2.56px;"/><path d="M113.434,39.766l3.379,25.447" style="fill:none;fill-rule:nonzero;stroke:#000;stroke-width:2.56px;"/><path d="M68.429,67.568c6.4,2.662 16.742,2.662 23.142,0c10.291,-4.301 3.021,-11.571 -11.571,-11.571c-14.592,-0 -21.862,7.321 -11.571,11.571Z" style="fill:#75507b;fill-rule:nonzero;"/><path d="M80,89.994c-1.792,-0 -3.226,-1.434 -3.226,-3.226l0,-5.069c0,-1.792 1.434,-3.225 3.226,-3.225c1.792,-0 3.226,1.433 3.226,3.225l-0,5.069c-0,1.792 -1.434,3.226 -3.226,3.226Z" style="fill-rule:nonzero;"/><path d="M84.659,80.778l0,6.912c0,1.382 0.871,2.611 2.151,3.072l14.796,5.171c2.1,0.717 4.301,-0.819 4.301,-3.072l-0,-17.203c-0,-2.202 -2.201,-3.789 -4.301,-3.072l-14.796,5.171c-1.229,0.409 -2.151,1.638 -2.151,3.021Z" style="fill-rule:nonzero;"/><path d="M75.341,80.778l-0,6.912c-0,1.382 -0.871,2.611 -2.151,3.072l-14.796,5.171c-2.1,0.717 -4.301,-0.819 -4.301,-3.072l-0,-17.203c-0,-2.202 2.201,-3.789 4.301,-3.072l14.796,5.171c1.229,0.409 2.151,1.638 2.151,3.021Z" style="fill-rule:nonzero;"/><path d="M117.786,188.912l41.728,-20.173l-8.858,-34.867c-5.786,-22.886 -17.05,-43.981 -32.87,-61.491l0,116.531Z" style="fill-rule:nonzero;"/><path d="M42.214,188.912l-41.728,-20.173l8.807,-34.816c5.785,-22.886 17.049,-43.981 32.87,-61.491l0,116.48" style="fill-rule:nonzero;"/><path d="M56.858,207.549l-29.236,0c-2.56,0 -4.608,-2.048 -4.608,-4.608c0,-2.56 2.048,-4.608 4.608,-4.608l29.236,0c2.56,0 4.608,2.048 4.608,4.608c-0.052,2.56 -2.1,4.608 -4.608,4.608Z" style="fill:#75507b;fill-rule:nonzero;"/><path d="M56.858,219.274l-29.236,0c-2.56,0 -4.608,-2.048 -4.608,-4.608c0,-2.56 2.048,-4.608 4.608,-4.608l29.236,0c2.56,0 4.608,2.048 4.608,4.608c-0.052,2.508 -2.1,4.608 -4.608,4.608Z" style="fill:#75507b;fill-rule:nonzero;"/><path d="M131.456,207.549l-29.235,0c-2.56,0 -4.608,-2.048 -4.608,-4.608c-0,-2.56 2.048,-4.608 4.608,-4.608l29.235,0c2.56,0 4.608,2.048 4.608,4.608c0,2.56 -2.048,4.608 -4.608,4.608Z" style="fill:#75507b;fill-rule:nonzero;"/><path d="M131.456,219.274l-29.235,0c-2.56,0 -4.608,-2.048 -4.608,-4.608c-0,-2.56 2.048,-4.608 4.608,-4.608l29.235,0c2.56,0 4.608,2.048 4.608,4.608c0,2.508 -2.048,4.608 -4.608,4.608Z" style="fill:#75507b;fill-rule:nonzero;"/><path d="M52.096,190.858l55.808,0" style="fill:none;fill-rule:nonzero;stroke:#000;stroke-width:2.56px;"/><path d="M216.768,43.264l17.664,0l-0,56.736l11.424,0l-0,-56.736l17.76,0l-0,-10.464l-46.848,0l-0,10.464Z" style="fill-rule:nonzero;"/><path d="M285.687,67.936l21.408,32.064l13.632,0l-22.752,-32.064l-12.288,0Zm-13.824,-35.136l0,67.2l11.328,0l0,-67.2l-11.328,0Zm6.72,9.792l13.536,0c2.56,0 4.8,0.448 6.72,1.344c1.984,0.896 3.52,2.176 4.608,3.84c1.088,1.664 1.632,3.712 1.632,6.144c-0,2.368 -0.544,4.416 -1.632,6.144c-1.088,1.664 -2.624,2.944 -4.608,3.84c-1.92,0.896 -4.16,1.344 -6.72,1.344l-13.536,0l0,9.312l14.016,0c4.864,0 9.088,-0.864 12.672,-2.592c3.648,-1.728 6.464,-4.16 8.448,-7.296c1.984,-3.136 2.976,-6.816 2.976,-11.04c-0,-4.224 -0.992,-7.872 -2.976,-10.944c-1.984,-3.136 -4.8,-5.568 -8.448,-7.296c-3.584,-1.728 -7.808,-2.592 -12.672,-2.592l-14.016,0l0,9.792Z" style="fill-rule:nonzero;"/><path d="M328.477,32.8l-0,45.12c-0,3.712 0.576,7.04 1.728,9.984c1.152,2.88 2.816,5.344 4.992,7.392c2.24,2.048 4.864,3.616 7.872,4.704c3.008,1.088 6.304,1.632 9.888,1.632c3.584,0 6.88,-0.544 9.888,-1.632c3.008,-1.088 5.6,-2.656 7.776,-4.704c2.176,-2.048 3.84,-4.512 4.992,-7.392c1.216,-2.944 1.824,-6.272 1.824,-9.984l-0,-45.12l-11.328,0l-0,44.64c-0,4.16 -1.12,7.52 -3.36,10.08c-2.24,2.496 -5.504,3.744 -9.792,3.744c-4.352,0 -7.648,-1.248 -9.888,-3.744c-2.176,-2.56 -3.264,-5.92 -3.264,-10.08l-0,-44.64l-11.328,0Z" style="fill-rule:nonzero;"/><path d="M396.373,78.4l-8.448,5.856c1.472,3.072 3.456,5.92 5.952,8.544c2.496,2.624 5.408,4.736 8.736,6.336c3.392,1.536 7.072,2.304 11.04,2.304c2.88,0 5.632,-0.48 8.256,-1.44c2.688,-0.896 5.088,-2.176 7.2,-3.84c2.112,-1.728 3.776,-3.84 4.992,-6.336c1.216,-2.496 1.824,-5.312 1.824,-8.448c0,-2.944 -0.512,-5.504 -1.536,-7.68c-0.96,-2.176 -2.272,-4.064 -3.936,-5.664c-1.664,-1.664 -3.52,-3.04 -5.568,-4.128c-1.984,-1.088 -3.968,-1.984 -5.952,-2.688c-3.584,-1.28 -6.496,-2.528 -8.736,-3.744c-2.24,-1.216 -3.904,-2.496 -4.992,-3.84c-1.024,-1.408 -1.536,-2.976 -1.536,-4.704c-0,-1.92 0.736,-3.584 2.208,-4.992c1.472,-1.472 3.776,-2.208 6.912,-2.208c2.24,0 4.192,0.448 5.856,1.344c1.728,0.832 3.232,1.984 4.512,3.456c1.28,1.408 2.336,2.944 3.168,4.608l9.216,-5.184c-1.152,-2.368 -2.752,-4.64 -4.8,-6.816c-1.984,-2.176 -4.448,-3.968 -7.392,-5.376c-2.944,-1.408 -6.4,-2.112 -10.368,-2.112c-4.032,0 -7.648,0.768 -10.848,2.304c-3.136,1.472 -5.632,3.584 -7.488,6.336c-1.856,2.688 -2.784,5.824 -2.784,9.408c-0,3.136 0.608,5.824 1.824,8.064c1.216,2.176 2.752,4.032 4.608,5.568c1.856,1.472 3.808,2.72 5.856,3.744c2.048,0.96 3.904,1.728 5.568,2.304c2.816,1.024 5.28,2.08 7.392,3.168c2.176,1.024 3.872,2.304 5.088,3.84c1.216,1.472 1.824,3.456 1.824,5.952c-0,2.624 -0.96,4.768 -2.88,6.432c-1.92,1.664 -4.416,2.496 -7.488,2.496c-2.56,-0 -4.864,-0.512 -6.912,-1.536c-2.048,-1.088 -3.936,-2.592 -5.664,-4.512c-1.664,-1.984 -3.232,-4.256 -4.704,-6.816Z" style="fill-rule:nonzero;"/><path d="M440.831,43.264l17.664,0l0,56.736l11.424,0l0,-56.736l17.759,0l0,-10.464l-46.847,0l0,10.464Z" style="fill-rule:nonzero;"/><path d="M495.926,32.8l0,67.2l38.015,0l0,-10.176l-26.687,0l0,-57.024l-11.328,0Z" style="fill-rule:nonzero;"/><path d="M549.152,100l33.888,0l-0,-9.984l-33.888,0l0,9.984Zm0,-57.216l33.888,0l-0,-9.984l-33.888,0l0,9.984Zm0,26.112l31.968,0l0,-9.792l-31.968,0l0,9.792Zm-7.008,-36.096l0,67.2l11.136,0l0,-67.2l-11.136,0Z" style="fill-rule:nonzero;"/><path d="M601.404,78.4l-8.448,5.856c1.472,3.072 3.456,5.92 5.952,8.544c2.496,2.624 5.408,4.736 8.736,6.336c3.392,1.536 7.072,2.304 11.04,2.304c2.88,0 5.632,-0.48 8.256,-1.44c2.688,-0.896 5.088,-2.176 7.2,-3.84c2.112,-1.728 3.776,-3.84 4.992,-6.336c1.216,-2.496 1.824,-5.312 1.824,-8.448c0,-2.944 -0.512,-5.504 -1.536,-7.68c-0.96,-2.176 -2.272,-4.064 -3.936,-5.664c-1.664,-1.664 -3.52,-3.04 -5.568,-4.128c-1.984,-1.088 -3.968,-1.984 -5.952,-2.688c-3.584,-1.28 -6.496,-2.528 -8.736,-3.744c-2.24,-1.216 -3.904,-2.496 -4.992,-3.84c-1.024,-1.408 -1.536,-2.976 -1.536,-4.704c0,-1.92 0.736,-3.584 2.208,-4.992c1.472,-1.472 3.776,-2.208 6.912,-2.208c2.24,0 4.192,0.448 5.856,1.344c1.728,0.832 3.232,1.984 4.512,3.456c1.28,1.408 2.336,2.944 3.168,4.608l9.216,-5.184c-1.152,-2.368 -2.752,-4.64 -4.8,-6.816c-1.984,-2.176 -4.448,-3.968 -7.392,-5.376c-2.944,-1.408 -6.4,-2.112 -10.368,-2.112c-4.032,0 -7.648,0.768 -10.848,2.304c-3.136,1.472 -5.632,3.584 -7.488,6.336c-1.856,2.688 -2.784,5.824 -2.784,9.408c0,3.136 0.608,5.824 1.824,8.064c1.216,2.176 2.752,4.032 4.608,5.568c1.856,1.472 3.808,2.72 5.856,3.744c2.048,0.96 3.904,1.728 5.568,2.304c2.816,1.024 5.28,2.08 7.392,3.168c2.176,1.024 3.872,2.304 5.088,3.84c1.216,1.472 1.824,3.456 1.824,5.952c0,2.624 -0.96,4.768 -2.88,6.432c-1.92,1.664 -4.416,2.496 -7.488,2.496c-2.56,-0 -4.864,-0.512 -6.912,-1.536c-2.048,-1.088 -3.936,-2.592 -5.664,-4.512c-1.664,-1.984 -3.232,-4.256 -4.704,-6.816Z" style="fill-rule:nonzero;"/><path d="M656.998,78.4l-8.448,5.856c1.472,3.072 3.456,5.92 5.952,8.544c2.496,2.624 5.408,4.736 8.736,6.336c3.392,1.536 7.072,2.304 11.04,2.304c2.88,0 5.632,-0.48 8.256,-1.44c2.688,-0.896 5.088,-2.176 7.2,-3.84c2.112,-1.728 3.776,-3.84 4.992,-6.336c1.216,-2.496 1.824,-5.312 1.824,-8.448c0,-2.944 -0.512,-5.504 -1.536,-7.68c-0.96,-2.176 -2.272,-4.064 -3.936,-5.664c-1.664,-1.664 -3.52,-3.04 -5.568,-4.128c-1.984,-1.088 -3.968,-1.984 -5.952,-2.688c-3.584,-1.28 -6.496,-2.528 -8.736,-3.744c-2.24,-1.216 -3.904,-2.496 -4.992,-3.84c-1.024,-1.408 -1.536,-2.976 -1.536,-4.704c-0,-1.92 0.736,-3.584 2.208,-4.992c1.472,-1.472 3.776,-2.208 6.912,-2.208c2.24,0 4.192,0.448 5.856,1.344c1.728,0.832 3.232,1.984 4.512,3.456c1.28,1.408 2.336,2.944 3.168,4.608l9.216,-5.184c-1.152,-2.368 -2.752,-4.64 -4.8,-6.816c-1.984,-2.176 -4.448,-3.968 -7.392,-5.376c-2.944,-1.408 -6.4,-2.112 -10.368,-2.112c-4.032,0 -7.648,0.768 -10.848,2.304c-3.136,1.472 -5.632,3.584 -7.488,6.336c-1.856,2.688 -2.784,5.824 -2.784,9.408c-0,3.136 0.608,5.824 1.824,8.064c1.216,2.176 2.752,4.032 4.608,5.568c1.856,1.472 3.808,2.72 5.856,3.744c2.048,0.96 3.904,1.728 5.568,2.304c2.816,1.024 5.28,2.08 7.392,3.168c2.176,1.024 3.872,2.304 5.088,3.84c1.216,1.472 1.824,3.456 1.824,5.952c0,2.624 -0.96,4.768 -2.88,6.432c-1.92,1.664 -4.416,2.496 -7.488,2.496c-2.56,-0 -4.864,-0.512 -6.912,-1.536c-2.048,-1.088 -3.936,-2.592 -5.664,-4.512c-1.664,-1.984 -3.232,-4.256 -4.704,-6.816Z" style="fill-rule:nonzero;"/><path d="M231.84,166.4c0,-4.8 1.056,-8.96 3.168,-12.48c2.176,-3.584 4.992,-6.336 8.448,-8.256c3.52,-1.984 7.328,-2.976 11.424,-2.976c3.2,-0 6.08,0.416 8.64,1.248c2.56,0.832 4.864,1.984 6.912,3.456c2.112,1.408 3.936,3.008 5.472,4.8l0,-13.44c-2.816,-2.304 -5.856,-4.064 -9.12,-5.28c-3.264,-1.216 -7.36,-1.824 -12.288,-1.824c-4.928,0 -9.536,0.832 -13.824,2.496c-4.224,1.664 -7.904,4.064 -11.04,7.2c-3.136,3.136 -5.6,6.848 -7.392,11.136c-1.728,4.224 -2.592,8.864 -2.592,13.92c0,5.056 0.864,9.728 2.592,14.016c1.792,4.224 4.256,7.904 7.392,11.04c3.136,3.136 6.816,5.536 11.04,7.2c4.288,1.664 8.896,2.496 13.824,2.496c4.928,0 9.024,-0.608 12.288,-1.824c3.264,-1.216 6.304,-2.976 9.12,-5.28l0,-13.44c-1.536,1.792 -3.36,3.424 -5.472,4.896c-2.048,1.408 -4.352,2.528 -6.912,3.36c-2.56,0.832 -5.44,1.248 -8.64,1.248c-4.096,0 -7.904,-0.96 -11.424,-2.88c-3.456,-1.984 -6.272,-4.768 -8.448,-8.352c-2.112,-3.584 -3.168,-7.744 -3.168,-12.48Z" style="fill-rule:nonzero;"/><path d="M298.023,166.4c0,-4.608 0.96,-8.704 2.88,-12.288c1.984,-3.648 4.704,-6.496 8.16,-8.544c3.456,-2.048 7.392,-3.072 11.808,-3.072c4.544,0 8.512,1.024 11.904,3.072c3.456,2.048 6.144,4.896 8.064,8.544c1.92,3.584 2.88,7.68 2.88,12.288c-0,4.608 -0.992,8.736 -2.976,12.384c-1.92,3.584 -4.608,6.4 -8.064,8.448c-3.392,2.048 -7.328,3.072 -11.808,3.072c-4.416,0 -8.352,-1.024 -11.808,-3.072c-3.456,-2.048 -6.176,-4.864 -8.16,-8.448c-1.92,-3.648 -2.88,-7.776 -2.88,-12.384Zm-12,0c0,4.992 0.864,9.632 2.592,13.92c1.728,4.288 4.128,8 7.2,11.136c3.136,3.136 6.848,5.6 11.136,7.392c4.288,1.728 8.928,2.592 13.92,2.592c5.056,0 9.696,-0.864 13.92,-2.592c4.288,-1.792 8,-4.256 11.136,-7.392c3.136,-3.136 5.568,-6.848 7.296,-11.136c1.728,-4.288 2.592,-8.928 2.592,-13.92c-0,-5.056 -0.864,-9.696 -2.592,-13.92c-1.728,-4.224 -4.192,-7.872 -7.392,-10.944c-3.136,-3.136 -6.816,-5.568 -11.04,-7.296c-4.224,-1.728 -8.864,-2.592 -13.92,-2.592c-4.928,0 -9.536,0.864 -13.824,2.592c-4.224,1.728 -7.936,4.16 -11.136,7.296c-3.136,3.072 -5.568,6.72 -7.296,10.944c-1.728,4.224 -2.592,8.864 -2.592,13.92Z" style="fill-rule:nonzero;"/><path d="M379.312,159.104l20.448,34.656l20.448,-34.656l4.704,40.896l11.712,0l-9.216,-70.56l-27.648,45.6l-27.552,-45.6l-9.216,70.56l11.712,0l4.608,-40.896Z" style="fill-rule:nonzero;"/><path d="M447.644,132.8l0,67.2l11.328,0l0,-67.2l-11.328,0Zm6.72,9.984l13.536,-0c3.904,-0 7.04,0.928 9.408,2.784c2.368,1.792 3.552,4.48 3.552,8.064c-0,3.584 -1.184,6.304 -3.552,8.16c-2.368,1.856 -5.504,2.784 -9.408,2.784l-13.536,0l-0,9.984l13.536,0c4.864,0 9.088,-0.832 12.672,-2.496c3.648,-1.728 6.464,-4.16 8.448,-7.296c1.984,-3.136 2.976,-6.848 2.976,-11.136c-0,-4.288 -0.992,-7.968 -2.976,-11.04c-1.984,-3.136 -4.8,-5.536 -8.448,-7.2c-3.584,-1.728 -7.808,-2.592 -12.672,-2.592l-13.536,0l-0,9.984Z" style="fill-rule:nonzero;"/><path d="M502.664,132.8l0,45.12c0,3.712 0.576,7.04 1.728,9.984c1.152,2.88 2.816,5.344 4.992,7.392c2.24,2.048 4.864,3.616 7.872,4.704c3.008,1.088 6.304,1.632 9.888,1.632c3.584,-0 6.88,-0.544 9.888,-1.632c3.008,-1.088 5.6,-2.656 7.776,-4.704c2.176,-2.048 3.84,-4.512 4.992,-7.392c1.216,-2.944 1.824,-6.272 1.824,-9.984l0,-45.12l-11.328,0l0,44.64c0,4.16 -1.12,7.52 -3.36,10.08c-2.24,2.496 -5.504,3.744 -9.792,3.744c-4.352,0 -7.648,-1.248 -9.888,-3.744c-2.176,-2.56 -3.264,-5.92 -3.264,-10.08l0,-44.64l-11.328,0Z" style="fill-rule:nonzero;"/><path d="M559.424,143.264l17.664,0l0,56.736l11.424,0l0,-56.736l17.76,0l0,-10.464l-46.848,0l0,10.464Z" style="fill-rule:nonzero;"/><path d="M621.527,200l33.888,0l-0,-9.984l-33.888,0l0,9.984Zm0,-57.216l33.888,0l-0,-9.984l-33.888,0l0,9.984Zm0,26.112l31.968,0l0,-9.792l-31.968,0l0,9.792Zm-7.008,-36.096l0,67.2l11.136,0l0,-67.2l-11.136,0Z" style="fill-rule:nonzero;"/><path d="M683.187,167.936l21.408,32.064l13.632,0l-22.752,-32.064l-12.288,0Zm-13.824,-35.136l0,67.2l11.328,0l0,-67.2l-11.328,0Zm6.72,9.792l13.536,0c2.56,0 4.8,0.448 6.72,1.344c1.984,0.896 3.52,2.176 4.608,3.84c1.088,1.664 1.632,3.712 1.632,6.144c0,2.368 -0.544,4.416 -1.632,6.144c-1.088,1.664 -2.624,2.944 -4.608,3.84c-1.92,0.896 -4.16,1.344 -6.72,1.344l-13.536,-0l-0,9.312l14.016,-0c4.864,-0 9.088,-0.864 12.672,-2.592c3.648,-1.728 6.464,-4.16 8.448,-7.296c1.984,-3.136 2.976,-6.816 2.976,-11.04c0,-4.224 -0.992,-7.872 -2.976,-10.944c-1.984,-3.136 -4.8,-5.568 -8.448,-7.296c-3.584,-1.728 -7.808,-2.592 -12.672,-2.592l-14.016,-0l-0,9.792Z" style="fill-rule:nonzero;"/></g></g></svg>